<?xml version="1.0" encoding="UTF-8"?>
<svg width="178px" height="52px" viewBox="0 0 178 52" version="1.1" xmlns="http://www.w3.org/2000/svg" xmlns:xlink="http://www.w3.org/1999/xlink">
    <!-- Generator: Sketch 52.5 (67469) - http://www.bohemiancoding.com/sketch -->
    <title>Stacked Logo</title>
    <desc>Created with Sketch.</desc>
    <g id="Style-Guide-Elements" stroke="none" stroke-width="1" fill="none" fill-rule="evenodd">
        <g id="Navigation/Footer-Mobile" transform="translate(-99.000000, -30.000000)" fill="#FFFFFF">
            <path d="M122.607461,39.7572854 C122.607461,34.5122569 126.554985,30.0282016 132.751121,30.0282016 C135.108942,30.0282016 137.357098,30.5640321 138.261386,30.8178466 L138.261386,34.5122569 L138.097344,34.5122569 C136.8636,32.9324969 134.779944,31.3250054 132.367289,31.3250054 C128.857973,31.3250054 126.199027,34.8502061 126.199027,39.4188662 C126.199027,44.6361631 129.296638,48.0198857 132.778537,48.0198857 C135.739522,48.0198857 137.658223,45.7078241 138.453302,44.6361631 L138.618258,44.6361631 L138.618258,48.1049606 C137.740929,48.5275146 135.575023,49.3176296 132.668871,49.3176296 C126.993649,49.3176296 122.607461,45.6227493 122.607461,39.7572854 Z M151.501286,30 C156.62772,30 160.849866,33.7790151 160.849866,39.4470678 C160.849866,45.2279268 156.490638,49.3453612 151.583536,49.3453612 C146.593727,49.3453612 142.234956,45.5950177 142.234956,39.926495 C142.234956,34.2015692 146.484061,30 151.501286,30 Z M151.555662,48.0198857 C154.571938,48.0198857 157.285717,44.8053728 157.285717,39.7008822 C157.285717,34.5399884 154.489231,31.2972738 151.501286,31.2972738 C148.512884,31.2972738 145.826064,34.5686601 145.826064,39.7008822 C145.826064,44.8053728 148.567717,48.0198857 151.555662,48.0198857 Z M178.108116,43.8747198 L178.273072,43.8747198 L178.273072,49.0069419 L164.483014,49.0069419 L164.483014,48.8377323 L166.347338,47.3153156 L166.347338,32.0300456 L164.483014,30.5076289 L164.483014,30.3384193 L171.473772,30.3384193 L171.473772,30.5076289 L169.609905,32.0300456 L169.609905,47.7378697 L175.339503,47.7378697 L178.108116,43.8747198 Z M191.734588,49.3176296 C185.840034,49.3176296 181.672722,45.3412033 181.672722,39.7572854 C181.672722,34.5686601 185.565869,30.0282016 191.816381,30.0282016 C194.393535,30.0282016 196.80619,30.5922337 197.683519,30.8178466 L197.683519,34.4553836 L197.51902,34.4553836 C196.176066,32.8483621 194.201619,31.3250054 191.542673,31.3250054 C187.896274,31.3250054 185.236871,34.7091981 185.236871,39.3906645 C185.236871,44.3254755 188.225272,47.9916841 192.063587,47.9916841 C193.379123,47.9916841 194.530618,47.5968617 195.161655,47.145636 L195.161655,40.998156 L192.940459,39.4752694 L192.940459,39.3060597 L199.822008,39.3060597 L199.822008,39.4752694 L198.341516,40.998156 L198.341516,47.8224745 C196.970689,48.1890954 194.914906,49.3176296 191.734588,49.3176296 Z M207.120289,48.8377323 L207.120289,49.0069419 L202.076104,49.0069419 L202.076104,48.8377323 L203.665806,47.3153156 L210.245773,30.0282016 L210.821063,30.0282016 L217.949362,47.3153156 L219.539063,48.8377323 L219.539063,49.0069419 L212.658428,49.0069419 L212.658428,48.8377323 L214.549712,47.3153156 L212.411679,42.0698171 L207.120289,42.0698171 L205.173715,47.2589124 L207.120289,48.8377323 Z M207.558953,40.857148 L211.918182,40.857148 L209.64261,35.3301034 L207.558953,40.857148 Z M236.699527,30.3384193 L236.699527,34.427652 L236.507611,34.427652 L234.232039,31.6074915 L230.201809,31.6074915 L230.201809,47.286644 L232.203216,48.8377323 L232.203216,49.0069419 L224.883459,49.0069419 L224.883459,48.8377323 L226.911826,47.286644 L226.911826,31.6074915 L222.854636,31.6074915 L220.60648,34.427652 L220.414565,34.427652 L220.414565,30.3384193 L236.699527,30.3384193 Z M240.406242,49.0069419 L240.406242,48.8377323 L242.270566,47.3153156 L242.270566,32.0300456 L240.406242,30.5076289 L240.406242,30.3384193 L252.825474,30.3384193 L252.825474,34.0610312 L252.660975,34.0610312 L250.632151,31.5788199 L245.533133,31.5788199 L245.533133,38.5164148 L250.824067,38.5164148 L252.249727,36.5423024 L252.386809,36.5423024 L252.386809,41.7027262 L252.249727,41.7027262 L250.824067,39.7572854 L245.533133,39.7572854 L245.533133,47.7378697 L251.180939,47.7378697 L253.291555,44.6361631 L253.456054,44.6361631 L253.456054,49.0069419 L240.406242,49.0069419 Z M115.997335,75.0624051 C115.997335,78.4747993 113.584681,82 108.787245,82 C103.742603,82 100.891741,79.2926459 100.891741,75.1188083 L100.891741,64.7410876 L99,63.2182009 L99,63.0489913 L106.182674,63.0489913 L106.182674,63.2182009 L104.153851,64.7410876 L104.153851,75.0060019 C104.153851,78.1927833 106.018175,80.0536192 109.472658,80.0536192 C112.625102,80.0536192 114.489426,77.8261624 114.489426,74.9778003 L114.489426,64.7410876 L112.460603,63.2182009 L112.460603,63.0489913 L117.834243,63.0489913 L117.834243,63.2182009 L115.997335,64.7410876 L115.997335,75.0624051 Z M121.269991,81.7175139 L121.269991,81.5487743 L123.243981,79.9412828 L123.243981,65.4174561 C122.448902,64.5436763 121.379657,63.4438137 121.105492,63.2182009 L121.105492,63.0489913 L125.601803,63.0489913 L137.253372,76.5852918 L137.253372,64.8256924 L134.9778,63.2182009 L134.9778,63.0489913 L140.762688,63.0489913 L140.762688,63.2182009 L138.761281,64.8256924 L138.761281,81.7175139 L137.472704,81.7175139 L124.779307,67.138224 L124.779307,79.9412828 L127.137129,81.5487743 L127.137129,81.7175139 L121.269991,81.7175139 Z M145.215589,81.7175139 L145.215589,81.5487743 L147.079914,80.0258876 L147.079914,64.7410876 L145.215589,63.2182009 L145.215589,63.0489913 L152.205891,63.0489913 L152.205891,63.2182009 L150.342024,64.7410876 L150.342024,80.0258876 L152.205891,81.5487743 L152.205891,81.7175139 L145.215589,81.7175139 Z M168.042136,63.2182009 L168.042136,63.0489913 L173.113738,63.0489913 L173.113738,63.2182009 L171.524036,64.7410876 L165.054191,82 L164.477987,82 L157.377563,64.7410876 L155.787404,63.2182009 L155.787404,63.0489913 L162.887828,63.0489913 L162.887828,63.2182009 L160.968671,64.7410876 L165.629481,76.5852918 L169.988253,64.7974908 L168.042136,63.2182009 Z M176.094828,81.7175139 L176.094828,81.5487743 L177.959152,80.0258876 L177.959152,64.7410876 L176.094828,63.2182009 L176.094828,63.0489913 L188.513603,63.0489913 L188.513603,66.7711331 L188.349104,66.7711331 L186.320737,64.2898619 L181.221263,64.2898619 L181.221263,71.2269868 L186.512653,71.2269868 L187.938313,69.2533444 L188.075395,69.2533444 L188.075395,74.4137682 L187.938313,74.4137682 L186.512653,72.4678574 L181.221263,72.4678574 L181.221263,80.4489117 L186.869068,80.4489117 L188.979684,77.3462651 L189.144183,77.3462651 L189.144183,81.7175139 L176.094828,81.7175139 Z M194.559862,81.7175139 L194.559862,81.5487743 L196.424186,80.0258876 L196.424186,64.7410876 L194.559862,63.2182009 L194.559862,63.0489913 L201.797369,63.0489913 C205.443311,63.0489913 207.829006,64.4586015 207.829006,67.1659556 C207.829006,69.4784872 206.074348,71.0295755 204.620815,71.7628173 L207.71934,77.2339287 C209.363875,80.138694 210.871784,81.1534818 211.447531,81.5487743 L211.447531,81.7175139 C211.228199,81.7739171 210.43312,81.9149252 209.720747,81.9149252 C207.417758,81.9149252 206.211431,81.1252802 204.895437,78.6999422 L201.605454,72.5524622 L199.686753,72.5524622 L199.686753,80.0258876 L201.769953,81.5487743 L201.769953,81.7175139 L194.559862,81.7175139 Z M199.686753,64.2334587 L199.686753,71.424868 L202.208617,71.424868 C203.497194,71.424868 204.703522,69.7887049 204.703522,67.8709957 C204.703522,65.2487165 203.00324,64.2334587 201.194206,64.2334587 L199.686753,64.2334587 Z M224.253793,63.2464025 L224.253793,66.6305951 L224.089751,66.6305951 C223.047922,65.1636416 221.841595,63.9796442 220.278853,63.9796442 C218.990276,63.9796442 217.921031,64.853894 217.921031,66.2635042 C217.921031,68.068407 219.045109,68.9149252 221.156182,70.493745 C223.760295,72.4678574 225.514953,73.9343409 225.514953,76.6698966 C225.514953,79.6587967 223.294671,82 219.620856,82 C217.345284,82 215.672876,81.3795647 214.76813,80.9001374 C214.631504,79.9126112 214.493965,77.3462651 214.548798,75.6264372 L214.76813,75.6264372 C215.618043,77.854364 216.87966,80.6463229 219.620856,80.6463229 C221.265848,80.6463229 222.444302,79.3772507 222.444302,77.713356 C222.444302,75.7956468 221.457764,74.8085906 219.209608,73.2297708 C216.467955,71.2551884 215.070169,69.6758985 215.070169,67.3356353 C215.070169,64.4308699 217.400117,62.7387736 220.580435,62.7387736 C222.472175,62.7387736 223.815128,63.1053945 224.253793,63.2464025 Z M230.842442,81.7175139 L230.842442,81.5487743 L232.706309,80.0258876 L232.706309,64.7410876 L230.842442,63.2182009 L230.842442,63.0489913 L237.833201,63.0489913 L237.833201,63.2182009 L235.969334,64.7410876 L235.969334,80.0258876 L237.833201,81.5487743 L237.833201,81.7175139 L230.842442,81.7175139 Z M258.068885,63.0489913 L258.068885,67.138224 L257.876513,67.138224 L255.601398,64.3180635 L251.571167,64.3180635 L251.571167,79.997686 L253.572574,81.5487743 L253.572574,81.7175139 L246.252817,81.7175139 L246.252817,81.5487743 L248.281184,79.997686 L248.281184,64.3180635 L244.223994,64.3180635 L241.975839,67.138224 L241.78438,67.138224 L241.78438,63.0489913 L258.068885,63.0489913 Z M271.955815,63.2182009 L271.955815,63.0489913 L277,63.0489913 L277,63.2182009 L275.382425,64.7410876 L270.611948,72.3832526 L270.611948,79.997686 L272.476272,81.5487743 L272.476272,81.7175139 L265.485971,81.7175139 L265.485971,81.5487743 L267.349838,79.997686 L267.349838,72.9190831 L262.140697,64.7410876 L260.550995,63.2182009 L260.550995,63.0489913 L267.706253,63.0489913 L267.706253,63.2182009 L265.814512,64.7410876 L269.844742,71.1987852 L273.819682,64.7974908 L271.955815,63.2182009 Z" id="Stacked-Logo"></path>
        </g>
    </g>
</svg>